<svg xmlns="http://www.w3.org/2000/svg" viewBox="0 0 700 990" role="img">
  <title>Ausmalbild: Noah lädt seine Batterie auf</title>
  <desc>Noah schläft in seinem Bett, über ihm schwebt eine ladende Batterie mit Blitz. Dazu Mond, Sterne und Zzz.</desc>
  <rect x="0" y="0" width="700" height="990" fill="#ffffff"/>
  <g fill="none" stroke="#111111" stroke-linecap="round" stroke-linejoin="round">
    <rect x="22" y="22" width="656" height="946" rx="22" stroke-width="5"/>

    <text x="350" y="80" text-anchor="middle" font-family="'Comic Sans MS','Segoe Print',cursive" font-size="32" font-weight="bold" fill="#111111" stroke="none">Noah lädt seine Batterie auf</text>
    <text x="350" y="112" text-anchor="middle" font-family="'Comic Sans MS','Segoe Print',cursive" font-size="16" fill="#111111" stroke="none">Ein Ausmalbild aus „Callis Gesundheits-Kompass“</text>

    <path d="M 138 150 A 50 50 0 1 0 138 245 A 64 64 0 0 1 138 150 Z" stroke-width="4"/>

    <g stroke-width="3.5">
      <path d="M 560 150 l 4 12 l 12 4 l -12 4 l -4 12 l -4 -12 l -12 -4 l 12 -4 z"/>
      <path d="M 610 215 l 3 9 l 9 3 l -9 3 l -3 9 l -3 -9 l -9 -3 l 9 -3 z"/>
      <path d="M 520 235 l 3 9 l 9 3 l -9 3 l -3 9 l -3 -9 l -9 -3 l 9 -3 z"/>
      <path d="M 205 130 l 3 9 l 9 3 l -9 3 l -3 9 l -3 -9 l -9 -3 l 9 -3 z"/>
    </g>

    <rect x="245" y="150" width="200" height="105" rx="16" stroke-width="5"/>
    <rect x="445" y="180" width="24" height="45" rx="7" stroke-width="5"/>
    <rect x="262" y="167" width="48" height="71" rx="8" stroke-width="4"/>
    <rect x="320" y="167" width="48" height="71" rx="8" stroke-width="4" stroke-dasharray="8 7"/>
    <polygon points="412,160 384,208 402,208 394,246 430,197 410,197" stroke-width="4"/>
    <g stroke-width="4">
      <path d="M 486 162 L 502 148"/>
      <path d="M 492 202 L 513 202"/>
      <path d="M 486 243 L 502 257"/>
    </g>

    <g font-family="'Comic Sans MS','Segoe Print',cursive" font-weight="bold" fill="#ffffff" stroke-width="2.5">
      <text x="238" y="345" font-size="48">Z</text>
      <text x="206" y="398" font-size="36">z</text>
      <text x="184" y="438" font-size="26">z</text>
    </g>

    <rect x="58" y="470" width="34" height="250" rx="14" stroke-width="5"/>
    <rect x="608" y="540" width="34" height="180" rx="14" stroke-width="5"/>
    <rect x="92" y="650" width="516" height="60" stroke-width="5"/>
    <rect x="63" y="720" width="24" height="46" rx="6" stroke-width="4"/>
    <rect x="613" y="720" width="24" height="46" rx="6" stroke-width="4"/>

    <rect x="100" y="592" width="160" height="66" rx="28" stroke-width="4.5"/>

    <circle cx="185" cy="577" r="50" fill="#ffffff" stroke-width="4.5"/>
    <path d="M 140 555 Q 150 522 188 518 Q 218 516 232 545" stroke-width="4"/>
    <path d="M 152 540 q 8 -12 20 -14" stroke-width="3"/>
    <path d="M 172 528 q 10 -8 22 -7" stroke-width="3"/>
    <path d="M 158 580 q 10 9 20 0" stroke-width="3.5"/>
    <path d="M 194 580 q 10 9 20 0" stroke-width="3.5"/>
    <path d="M 178 606 q 9 8 18 0" stroke-width="3.5"/>

    <path d="M 232 618 Q 300 578 370 596 Q 450 612 505 575 Q 535 553 565 580 Q 590 598 608 602 L 608 662
             q -23 14 -46 0 q -23 14 -46 0 q -23 14 -46 0 q -23 14 -46 0 q -23 14 -46 0 q -23 14 -46 0 q -23 14 -46 0 q -23 14 -46 0
             L 232 618 Z" fill="#ffffff" stroke-width="5"/>
    <rect x="300" y="612" width="44" height="32" rx="6" stroke-width="3" stroke-dasharray="6 5"/>
    <path d="M 460 610 c -6 -10 -22 -4 -16 8 c 3 7 16 14 16 14 c 0 0 13 -7 16 -14 c 6 -12 -10 -18 -16 -8 z" stroke-width="3"/>

    <g stroke-width="3.5">
      <ellipse cx="285" cy="752" rx="32" ry="13"/>
      <path d="M 262 746 q 12 -12 30 -4"/>
      <ellipse cx="365" cy="752" rx="32" ry="13"/>
      <path d="M 342 746 q 12 -12 30 -4"/>
    </g>

    <g font-family="'Comic Sans MS','Segoe Print',cursive" font-size="18" fill="#111111" stroke="none">
      <text x="70" y="900">Name:</text>
      <text x="390" y="900">Datum:</text>
    </g>
    <path d="M 138 904 L 340 904" stroke-width="2.5"/>
    <path d="M 462 904 L 625 904" stroke-width="2.5"/>

    <text x="350" y="945" text-anchor="middle" font-family="'Comic Sans MS','Segoe Print',cursive" font-size="13" fill="#111111" stroke="none">callidus KIDS · Callis Gesundheits-Kompass</text>
  </g>
</svg>
